<mxfile host="app.diagrams.net" modified="2023-01-18T09:09:14.963Z" agent="5.0 (Windows NT 10.0; Win64; x64) AppleWebKit/537.36 (KHTML, like Gecko) Chrome/109.0.0.0 Safari/537.36" etag="x6tDu3otQbK4cIuBbCEY" version="20.8.5" type="github">
  <diagram id="I_NVKaHChZC2nxXdqTMT" name="Page-1">
    <mxGraphModel dx="880" dy="484" grid="1" gridSize="10" guides="1" tooltips="1" connect="1" arrows="1" fold="1" page="1" pageScale="1" pageWidth="850" pageHeight="1100" math="0" shadow="0">
      <root>
        <mxCell id="0" />
        <mxCell id="1" parent="0" />
        <mxCell id="F0ykMorabaWwdRA2vrP6-6" value="West Europe" style="text;strokeColor=none;align=center;fillColor=none;html=1;verticalAlign=middle;whiteSpace=wrap;rounded=0;" parent="1" vertex="1">
          <mxGeometry x="180" y="50" width="80" height="30" as="geometry" />
        </mxCell>
        <mxCell id="F0ykMorabaWwdRA2vrP6-9" value="" style="rounded=0;whiteSpace=wrap;html=1;fillColor=none;dashed=1;strokeColor=#5943a8;" parent="1" vertex="1">
          <mxGeometry x="180" y="80" width="300" height="150" as="geometry" />
        </mxCell>
        <mxCell id="F0ykMorabaWwdRA2vrP6-10" value="" style="aspect=fixed;html=1;points=[];align=center;image;fontSize=12;image=img/lib/azure2/networking/Virtual_Networks.svg;" parent="1" vertex="1">
          <mxGeometry x="410" y="210" width="67" height="40" as="geometry" />
        </mxCell>
        <mxCell id="F0ykMorabaWwdRA2vrP6-16" style="edgeStyle=orthogonalEdgeStyle;rounded=0;orthogonalLoop=1;jettySize=auto;html=1;" parent="1" source="F0ykMorabaWwdRA2vrP6-11" target="F0ykMorabaWwdRA2vrP6-14" edge="1">
          <mxGeometry relative="1" as="geometry" />
        </mxCell>
        <mxCell id="F0ykMorabaWwdRA2vrP6-11" value="" style="verticalLabelPosition=bottom;html=1;verticalAlign=top;align=center;strokeColor=none;fillColor=#00BEF2;shape=mxgraph.azure.virtual_machine;dashed=1;" parent="1" vertex="1">
          <mxGeometry x="279" y="117.5" width="90" height="75" as="geometry" />
        </mxCell>
        <mxCell id="F0ykMorabaWwdRA2vrP6-12" value="10.0.0.4" style="text;strokeColor=none;align=center;fillColor=none;html=1;verticalAlign=middle;whiteSpace=wrap;rounded=0;dashed=1;" parent="1" vertex="1">
          <mxGeometry x="369" y="140" width="60" height="30" as="geometry" />
        </mxCell>
        <mxCell id="F0ykMorabaWwdRA2vrP6-13" value="104.40.183.162" style="text;strokeColor=none;align=center;fillColor=none;html=1;verticalAlign=middle;whiteSpace=wrap;rounded=0;dashed=1;" parent="1" vertex="1">
          <mxGeometry x="250" y="230" width="60" height="30" as="geometry" />
        </mxCell>
        <mxCell id="F0ykMorabaWwdRA2vrP6-14" value="" style="aspect=fixed;perimeter=ellipsePerimeter;html=1;align=center;shadow=0;dashed=0;spacingTop=3;image;image=img/lib/active_directory/internet_globe.svg;strokeColor=#5943a8;fillColor=none;" parent="1" vertex="1">
          <mxGeometry x="250" y="320" width="149" height="149" as="geometry" />
        </mxCell>
        <mxCell id="F0ykMorabaWwdRA2vrP6-19" style="edgeStyle=orthogonalEdgeStyle;rounded=0;orthogonalLoop=1;jettySize=auto;html=1;exitX=0.5;exitY=0;exitDx=0;exitDy=0;exitPerimeter=0;" parent="1" source="F0ykMorabaWwdRA2vrP6-18" target="F0ykMorabaWwdRA2vrP6-14" edge="1">
          <mxGeometry relative="1" as="geometry" />
        </mxCell>
        <mxCell id="F0ykMorabaWwdRA2vrP6-18" value="" style="sketch=0;pointerEvents=1;shadow=0;dashed=0;html=1;strokeColor=none;labelPosition=center;verticalLabelPosition=bottom;verticalAlign=top;align=center;fillColor=#515151;shape=mxgraph.mscae.system_center.admin_console" parent="1" vertex="1">
          <mxGeometry x="418.5" y="550" width="50" height="36" as="geometry" />
        </mxCell>
        <mxCell id="F0ykMorabaWwdRA2vrP6-20" value="ssh 22" style="text;strokeColor=none;align=center;fillColor=none;html=1;verticalAlign=middle;whiteSpace=wrap;rounded=0;dashed=1;" parent="1" vertex="1">
          <mxGeometry x="395" y="480" width="60" height="30" as="geometry" />
        </mxCell>
        <mxCell id="F0ykMorabaWwdRA2vrP6-21" value="" style="sketch=0;aspect=fixed;html=1;points=[];align=center;image;fontSize=12;image=img/lib/mscae/Key.svg;dashed=1;strokeColor=#5943a8;fillColor=none;" parent="1" vertex="1">
          <mxGeometry x="260" y="100" width="31" height="50" as="geometry" />
        </mxCell>
        <mxCell id="F0ykMorabaWwdRA2vrP6-22" value="" style="sketch=0;aspect=fixed;html=1;points=[];align=center;image;fontSize=12;image=img/lib/mscae/Key.svg;dashed=1;strokeColor=#5943a8;fillColor=none;" parent="1" vertex="1">
          <mxGeometry x="480" y="520" width="31" height="50" as="geometry" />
        </mxCell>
        <mxCell id="F0ykMorabaWwdRA2vrP6-23" value="public&lt;br&gt;key" style="text;strokeColor=none;align=center;fillColor=none;html=1;verticalAlign=middle;whiteSpace=wrap;rounded=0;dashed=1;" parent="1" vertex="1">
          <mxGeometry x="210" y="120" width="60" height="30" as="geometry" />
        </mxCell>
        <mxCell id="F0ykMorabaWwdRA2vrP6-24" value="private key" style="text;strokeColor=none;align=center;fillColor=none;html=1;verticalAlign=middle;whiteSpace=wrap;rounded=0;dashed=1;" parent="1" vertex="1">
          <mxGeometry x="511" y="530" width="60" height="30" as="geometry" />
        </mxCell>
        <mxCell id="F0ykMorabaWwdRA2vrP6-26" style="edgeStyle=orthogonalEdgeStyle;rounded=0;orthogonalLoop=1;jettySize=auto;html=1;entryX=0.25;entryY=1;entryDx=0;entryDy=0;" parent="1" source="F0ykMorabaWwdRA2vrP6-25" target="F0ykMorabaWwdRA2vrP6-14" edge="1">
          <mxGeometry relative="1" as="geometry" />
        </mxCell>
        <mxCell id="F0ykMorabaWwdRA2vrP6-25" value="users" style="sketch=0;outlineConnect=0;gradientColor=none;fontColor=#545B64;strokeColor=none;fillColor=#879196;dashed=0;verticalLabelPosition=bottom;verticalAlign=top;align=center;html=1;fontSize=12;fontStyle=0;aspect=fixed;shape=mxgraph.aws4.illustration_users;pointerEvents=1" parent="1" vertex="1">
          <mxGeometry x="154" y="530" width="56" height="56" as="geometry" />
        </mxCell>
        <mxCell id="F0ykMorabaWwdRA2vrP6-27" value="" style="aspect=fixed;html=1;points=[];align=center;image;fontSize=12;image=img/lib/azure2/general/Browser.svg;dashed=1;strokeColor=#5943a8;fillColor=none;" parent="1" vertex="1">
          <mxGeometry x="154" y="480" width="50" height="40" as="geometry" />
        </mxCell>
        <mxCell id="F0ykMorabaWwdRA2vrP6-28" value="http 80" style="text;strokeColor=none;align=center;fillColor=none;html=1;verticalAlign=middle;whiteSpace=wrap;rounded=0;dashed=1;" parent="1" vertex="1">
          <mxGeometry x="230" y="529" width="60" height="30" as="geometry" />
        </mxCell>
        <mxCell id="F0ykMorabaWwdRA2vrP6-30" value="West Europe" style="text;strokeColor=none;align=center;fillColor=none;html=1;verticalAlign=middle;whiteSpace=wrap;rounded=0;" parent="1" vertex="1">
          <mxGeometry x="692" y="30" width="80" height="30" as="geometry" />
        </mxCell>
        <mxCell id="F0ykMorabaWwdRA2vrP6-31" value="" style="rounded=0;whiteSpace=wrap;html=1;fillColor=none;dashed=1;strokeColor=#5943a8;" parent="1" vertex="1">
          <mxGeometry x="687" y="60" width="330" height="170" as="geometry" />
        </mxCell>
        <mxCell id="F0ykMorabaWwdRA2vrP6-32" value="" style="aspect=fixed;html=1;points=[];align=center;image;fontSize=12;image=img/lib/azure2/networking/Virtual_Networks.svg;" parent="1" vertex="1">
          <mxGeometry x="937" y="210" width="67" height="40" as="geometry" />
        </mxCell>
        <mxCell id="F0ykMorabaWwdRA2vrP6-33" style="edgeStyle=orthogonalEdgeStyle;rounded=0;orthogonalLoop=1;jettySize=auto;html=1;" parent="1" target="F0ykMorabaWwdRA2vrP6-37" edge="1">
          <mxGeometry relative="1" as="geometry">
            <mxPoint x="838" y="230" as="sourcePoint" />
          </mxGeometry>
        </mxCell>
        <mxCell id="F0ykMorabaWwdRA2vrP6-37" value="" style="aspect=fixed;perimeter=ellipsePerimeter;html=1;align=center;shadow=0;dashed=0;spacingTop=3;image;image=img/lib/active_directory/internet_globe.svg;strokeColor=#5943a8;fillColor=none;" parent="1" vertex="1">
          <mxGeometry x="763" y="320" width="149" height="149" as="geometry" />
        </mxCell>
        <mxCell id="F0ykMorabaWwdRA2vrP6-38" style="edgeStyle=orthogonalEdgeStyle;rounded=0;orthogonalLoop=1;jettySize=auto;html=1;exitX=0.5;exitY=0;exitDx=0;exitDy=0;exitPerimeter=0;" parent="1" source="F0ykMorabaWwdRA2vrP6-39" target="F0ykMorabaWwdRA2vrP6-37" edge="1">
          <mxGeometry relative="1" as="geometry" />
        </mxCell>
        <mxCell id="F0ykMorabaWwdRA2vrP6-39" value="" style="sketch=0;pointerEvents=1;shadow=0;dashed=0;html=1;strokeColor=none;labelPosition=center;verticalLabelPosition=bottom;verticalAlign=top;align=center;fillColor=#515151;shape=mxgraph.mscae.system_center.admin_console" parent="1" vertex="1">
          <mxGeometry x="931.5" y="550" width="50" height="36" as="geometry" />
        </mxCell>
        <mxCell id="F0ykMorabaWwdRA2vrP6-40" value="ssh 22" style="text;strokeColor=none;align=center;fillColor=none;html=1;verticalAlign=middle;whiteSpace=wrap;rounded=0;dashed=1;" parent="1" vertex="1">
          <mxGeometry x="908" y="480" width="60" height="30" as="geometry" />
        </mxCell>
        <mxCell id="F0ykMorabaWwdRA2vrP6-41" value="" style="sketch=0;aspect=fixed;html=1;points=[];align=center;image;fontSize=12;image=img/lib/mscae/Key.svg;dashed=1;strokeColor=#5943a8;fillColor=none;" parent="1" vertex="1">
          <mxGeometry x="755" y="80" width="31" height="50" as="geometry" />
        </mxCell>
        <mxCell id="F0ykMorabaWwdRA2vrP6-42" value="" style="sketch=0;aspect=fixed;html=1;points=[];align=center;image;fontSize=12;image=img/lib/mscae/Key.svg;dashed=1;strokeColor=#5943a8;fillColor=none;" parent="1" vertex="1">
          <mxGeometry x="993" y="520" width="31" height="50" as="geometry" />
        </mxCell>
        <mxCell id="F0ykMorabaWwdRA2vrP6-43" value="public&lt;br&gt;key" style="text;strokeColor=none;align=center;fillColor=none;html=1;verticalAlign=middle;whiteSpace=wrap;rounded=0;dashed=1;" parent="1" vertex="1">
          <mxGeometry x="740" y="131" width="60" height="30" as="geometry" />
        </mxCell>
        <mxCell id="F0ykMorabaWwdRA2vrP6-44" value="private key" style="text;strokeColor=none;align=center;fillColor=none;html=1;verticalAlign=middle;whiteSpace=wrap;rounded=0;dashed=1;" parent="1" vertex="1">
          <mxGeometry x="1024" y="530" width="60" height="30" as="geometry" />
        </mxCell>
        <mxCell id="F0ykMorabaWwdRA2vrP6-45" style="edgeStyle=orthogonalEdgeStyle;rounded=0;orthogonalLoop=1;jettySize=auto;html=1;entryX=0.25;entryY=1;entryDx=0;entryDy=0;" parent="1" source="F0ykMorabaWwdRA2vrP6-46" target="F0ykMorabaWwdRA2vrP6-37" edge="1">
          <mxGeometry relative="1" as="geometry" />
        </mxCell>
        <mxCell id="F0ykMorabaWwdRA2vrP6-46" value="users" style="sketch=0;outlineConnect=0;gradientColor=none;fontColor=#545B64;strokeColor=none;fillColor=#879196;dashed=0;verticalLabelPosition=bottom;verticalAlign=top;align=center;html=1;fontSize=12;fontStyle=0;aspect=fixed;shape=mxgraph.aws4.illustration_users;pointerEvents=1" parent="1" vertex="1">
          <mxGeometry x="667" y="530" width="56" height="56" as="geometry" />
        </mxCell>
        <mxCell id="F0ykMorabaWwdRA2vrP6-47" value="" style="aspect=fixed;html=1;points=[];align=center;image;fontSize=12;image=img/lib/azure2/general/Browser.svg;dashed=1;strokeColor=#5943a8;fillColor=none;" parent="1" vertex="1">
          <mxGeometry x="667" y="480" width="50" height="40" as="geometry" />
        </mxCell>
        <mxCell id="F0ykMorabaWwdRA2vrP6-48" value="http 80" style="text;strokeColor=none;align=center;fillColor=none;html=1;verticalAlign=middle;whiteSpace=wrap;rounded=0;dashed=1;" parent="1" vertex="1">
          <mxGeometry x="743" y="529" width="60" height="30" as="geometry" />
        </mxCell>
        <mxCell id="F0ykMorabaWwdRA2vrP6-49" value="" style="aspect=fixed;html=1;points=[];align=center;image;fontSize=12;image=img/lib/azure2/networking/Spot_VMSS.svg;strokeColor=default;fillColor=none;" parent="1" vertex="1">
          <mxGeometry x="797" y="73" width="81.81" height="77" as="geometry" />
        </mxCell>
        <mxCell id="F0ykMorabaWwdRA2vrP6-51" value="" style="edgeStyle=orthogonalEdgeStyle;rounded=0;orthogonalLoop=1;jettySize=auto;html=1;" parent="1" source="F0ykMorabaWwdRA2vrP6-50" target="F0ykMorabaWwdRA2vrP6-49" edge="1">
          <mxGeometry relative="1" as="geometry" />
        </mxCell>
        <mxCell id="F0ykMorabaWwdRA2vrP6-50" value="" style="aspect=fixed;html=1;points=[];align=center;image;fontSize=12;image=img/lib/azure2/networking/Load_Balancers.svg;strokeColor=default;fillColor=none;" parent="1" vertex="1">
          <mxGeometry x="812.91" y="206" width="50" height="50" as="geometry" />
        </mxCell>
        <mxCell id="F0ykMorabaWwdRA2vrP6-52" value="VMSS" style="text;strokeColor=none;align=center;fillColor=none;html=1;verticalAlign=middle;whiteSpace=wrap;rounded=0;" parent="1" vertex="1">
          <mxGeometry x="887" y="100" width="60" height="30" as="geometry" />
        </mxCell>
        <mxCell id="F0ykMorabaWwdRA2vrP6-54" value="" style="endArrow=classic;html=1;rounded=0;" parent="1" edge="1">
          <mxGeometry relative="1" as="geometry">
            <mxPoint x="520" y="160" as="sourcePoint" />
            <mxPoint x="660" y="160" as="targetPoint" />
          </mxGeometry>
        </mxCell>
        <mxCell id="F0ykMorabaWwdRA2vrP6-55" value="best practice" style="edgeLabel;resizable=0;html=1;align=center;verticalAlign=middle;strokeColor=default;fillColor=none;" parent="F0ykMorabaWwdRA2vrP6-54" connectable="0" vertex="1">
          <mxGeometry relative="1" as="geometry" />
        </mxCell>
        <mxCell id="F0ykMorabaWwdRA2vrP6-56" value="load balancer" style="text;strokeColor=none;align=center;fillColor=none;html=1;verticalAlign=middle;whiteSpace=wrap;rounded=0;" parent="1" vertex="1">
          <mxGeometry x="852" y="240" width="60" height="30" as="geometry" />
        </mxCell>
      </root>
    </mxGraphModel>
  </diagram>
</mxfile>
